<?xml version="1.0" encoding="utf-8"?>
<!-- Generator: Adobe Illustrator 25.0.1, SVG Export Plug-In . SVG Version: 6.00 Build 0)  -->
<svg version="1.1" id="Layer_1" xmlns="http://www.w3.org/2000/svg" xmlns:xlink="http://www.w3.org/1999/xlink" x="0px" y="0px"
	 viewBox="0 0 761 741.8" style="enable-background:new 0 0 761 741.8;" xml:space="preserve">
<style type="text/css">
	.st0{fill:none;}
	.st1{fill:#949494;}
	.st2{fill:#F2F2F2;}
	.st3{fill:#E0E0E0;}
	.st4{fill:none;stroke:#A4A4A4;stroke-width:3;stroke-linecap:round;stroke-linejoin:round;}
	.st5{fill:none;stroke:#000000;stroke-width:2.5;stroke-linecap:round;stroke-linejoin:round;}
	.st6{fill:#A4A4A4;}
	.st7{fill:url(#SVGID_1_);}
	.st8{fill:url(#SVGID_2_);}
</style>
<pattern  y="741.8" width="12" height="12" patternUnits="userSpaceOnUse" id="New_Pattern" viewBox="2 -14 12 12" style="overflow:visible;">
	<g>
		<rect x="2" y="-14" class="st0" width="12" height="12"/>
		<rect x="2" y="-14" class="st0" width="12" height="12"/>
		<rect x="2" y="-14" class="st0" width="12" height="12"/>
		<rect x="2" y="-14" class="st0" width="12" height="12"/>
		<circle class="st1" cx="14" cy="-11" r="2"/>
		<circle class="st1" cx="8" cy="-14" r="2"/>
		<circle class="st1" cx="2" cy="-11" r="2"/>
		<circle class="st1" cx="14" cy="-5" r="2"/>
		<circle class="st1" cx="8" cy="-8" r="2"/>
		<circle class="st1" cx="2" cy="-5" r="2"/>
		<circle class="st1" cx="8" cy="-2" r="2"/>
	</g>
</pattern>
<g id="Layer_2_1_">
	<g id="vector">
		<path class="st2" d="M426.3,449.7c6.5-11.8,120.9-21.1,152.6-23.5c-10.7-11.3-24-39.5-33.7-72c-7.5,10-16.3,20.3-20.9,22.7
			c-16.5,8.6-111.3,1.3-115.5,1.3s-5.5,2.2-9.5,2.5c-21.2,0.3-39.5-10.8-39.8-13.1s6.1-13.5,9.3-14.1c1-0.2,3.8,0.4,7.3,1.3
			c1-0.4,2-0.8,3-1c4.3-0.7,14.7,2.7,18,2.7s14.8-5,18-5.9s64.1-19.4,65.6-21.3s19.9-24,24.1-29.1c-0.8-1.1-1.4-2.2-2-3.5
			c-0.8-5,14.6-32.5,32.3-49.2c2.5-10.8,6.6-20.1,12.8-27.2c-3.8-4.7-7.6-9.5-11.4-14.4c-13.3-4.8-25.6-18-31.4-35.9
			c-1.1-3.4-2-6.9-2.5-10.5c-3.2-4.6-6.4-9.2-9.5-13.8c-11.9-2.8-23.5-7.5-23.5-13.5c0-4.2,3.4-7.5,8-9.1
			c-39.2-56.6-77.1-107-126.3-119.9C281.1-14.9,188.2,43.2,130,122.7S48.4,302.8,64.8,402.4S137.3,600.6,215,628
			c55.1,19.4,121.2,3.1,187.3-25.4C410,539.1,421.7,458,426.3,449.7z"/>
		<path class="st3" d="M408.9,378.2c-4.1,0-5.5,2.2-9.5,2.5c-19.4,0.2-36.4-9-39.3-12.4h-316L0,391.8h518.1l-20.5-10.9
			C463.6,382.1,411.9,378.2,408.9,378.2z"/>
		<path class="st2" d="M521.8,532.5v-11c-8.2-0.9-16.1-1.9-23.2-3c2.1,6,5.6,17.1,9.7,30.5c9.7-5.5,19.2-11,28.4-16.5H521.8z"/>
		<line class="st4" x1="412.2" y1="406.4" x2="412.2" y2="525.6"/>
		<path class="st5" d="M505,300.2c-4.3,5-22.8,27.2-24.1,29.1s-62.4,20.5-65.6,21.3s-14.8,5.9-18,5.9s-13.7-3.5-18-2.7
			c-1.1,0.2-2.1,0.6-3.1,1"/>
		<path d="M688.5,469.6c-1.3-12.8-9.6-58.4-13.7-71l0,0c-9.1,15.3-82.4,40.4-94.5,29c-0.5-0.4-0.9-0.9-1.4-1.4
			c-31.7,2.4-146.1,11.7-152.6,23.5c-7.6,13.7-34.4,226.2-31,229.6s16.9,8.3,26.1,6c5.5-5.6,54.7-159.3,55.7-171.7
			c19.5,7.4,87.3,11.9,107.8,11.9C646.9,525.5,690.8,492.3,688.5,469.6z"/>
		<line class="st5" x1="507.6" y1="672.6" x2="497" y2="727.3"/>
		<line class="st5" x1="534.8" y1="532.5" x2="523" y2="593.2"/>
		<polyline class="st5" points="650,303.7 674.2,214.4 759.8,214.4 678.6,532.5 521.8,532.5 521.8,521.4 		"/>
		<path class="st5" d="M530.7,321.1c-11.4-6.6-24.2-16.4-27.7-24.4c-0.8-5,14.6-32.5,32.3-49.2"/>
		<path class="st5" d="M532.4,274.3c0.2-23.2,5.2-43.5,17.3-55.8"/>
		<path class="st5" d="M578.8,206.1c1.4-0.1,2.8-0.1,4.3-0.1c48.1,0,94.4,183.6,92.5,190.9c-3.9,15.1-82.7,42.6-95.3,30.8
			c-11-10.3-25.1-39.4-35.1-73.5"/>
		<line class="st5" x1="669.6" y1="532.5" x2="707.4" y2="727.3"/>
		<polyline class="st5" points="417.8,685.9 402.2,740.6 334.4,710.4 391.3,698.6 396.4,681 		"/>
		<polyline class="st5" points="534.8,658.8 558.4,710.5 487.2,731.5 522.9,685.6 515.4,669 		"/>
		<path class="st5" d="M551.4,230.6c-0.7-6.4-2.2-18-4.3-22.7"/>
		<path class="st5" d="M573.4,191.8c2.5,7.9,7.1,19.1,9.4,21.6c1.8,2-3.2,9.7-11.2,14.9"/>
		<path class="st5" d="M576.6,184.5c-3.6,10.7-10.7,18.9-20.4,22.1c-19.5,6.4-42.3-10-51-36.5c-2.4-7.3-3.5-14.9-3.3-22.6"/>
		<path class="st5" d="M548.6,155.2c-1.5,0.3-3.1,0.4-4.6,0.4c-3.8,0-11.1-4.6-11.1-9.9c-8.2,0.1-8.2,2.8-19.4,2.8
			c-12.7,0-43.9-6.4-43.9-16.3c0-6.7,8.7-11.3,17.3-9.7c-5.8-3.1-11-9.5-11-13.8c0-5.9,7.5-10.1,13.3-10.1c6.9,0,12.8,2.9,15.8,5.7
			c-2.4-4.1-0.1-14.9,5.6-14.9c19.9,0,71.1,35.4,71.1,71c0,19.1-3.4,24-4.7,24s-12.5-8.7-13.6-15.5"/>
		<path class="st5" d="M546.8,159.4c0.9-5.6,6.2-9.4,11.9-8.5s9.4,6.2,8.5,11.9c-0.7,4.4-4.2,7.9-8.6,8.5"/>
		<rect y="391.9" class="st6" width="518.6" height="14.5"/>
		<line class="st4" x1="65.3" y1="406.4" x2="65.3" y2="711.4"/>
		<line class="st4" x1="106.4" y1="406.4" x2="106.4" y2="656.5"/>
		<line class="st4" x1="453.3" y1="406.4" x2="453.3" y2="711.4"/>
		<rect x="190.8" y="362.1" class="st6" width="17.6" height="21"/>
		<rect x="175.9" y="102.1" class="st3" width="8.4" height="271.4"/>
		<pattern  id="SVGID_1_" xlink:href="#New_Pattern" patternTransform="matrix(-1 0 0 1 -15596.8203 -160.5601)">
		</pattern>
		<polygon class="st7" points="184.3,102.1 184.3,237.8 184.3,373.5 224.1,358.9 224.1,237.8 224.1,116.7 		"/>
		<path class="st6" d="M362,369.9h-56.1v6.3h68.9C370.2,374.7,366,372.5,362,369.9z"/>
		<pattern  id="SVGID_2_" xlink:href="#New_Pattern" patternTransform="matrix(-1 0 0 1 -15596.8203 -160.5601)">
		</pattern>
		<path class="st8" d="M363.7,371c-6.2,1.7-10.4,4.8-10.4,8.4c0,5.3,9.2,9.6,20.6,9.6c10.6,0,19.3-3.7,20.5-8.5
			C383.6,379.7,373.1,376.4,363.7,371z"/>
		<path class="st5" d="M519.3,310.6c-4.8,6-20.6,28.7-22.4,31.3c-42,4.9-97.5,18.4-99.5,18.4s-25.4-7.5-28.5-6.9s-9.5,11.8-9.3,14.1
			s18.6,13.4,39.8,13.1c4-0.3,5.3-2.5,9.5-2.5s99,7.3,115.5-1.3c7.9-4.2,28.6-32.5,33.2-40.7"/>
		<path class="st5" d="M538.2,326.3c-9.7-6.3-19.3-14.3-22.3-21c-1.2-8,39.6-74.7,64.2-60.4c28.8,16.8-14.2,90.1-19.7,92
			C556.3,336.5,547.2,332.2,538.2,326.3"/>
		<path d="M498.6,518.5L498.6,518.5l-3.8-9.5l-9.9-11.7l-18.4,23.3l-10.6,39.7l0.9,20.6h0.8c2.9,6.4,37.2,81.9,47.8,90.3
			c8.6-0.7,28.9-11.6,33.6-16.5C538.1,648.2,507,542.3,498.6,518.5z"/>
	</g>
</g>
</svg>
